# xmcd
#
# Track frame offsets:
#	150
#	30218
#	45876
#	72349
#	91199
#	105500
#	122651
#	143098
#	160298
#	175878
#	189689
#	204319
#	217606
#	229648
#
# Disc length: 3421 seconds
#
# Revision: 9
# Processed by: cddbd v1.5.2PL0 Copyright (c) Steve Scherf et al.
# Submitted via: Jack! The Knife 20 Magnifico
#
DISCID=a90d5b0e
DTITLE=Anvil - This Is Thirteen
DYEAR=2007
DGENRE=Heavy Metal
TTITLE0=This Is Thirteen
TTITLE1=Bombs Away
TTITLE2=Burning Bridges
TTITLE3=Ready To Fight
TTITLE4=Flying Blind
TTITLE5=Room # 9
TTITLE6=Axe To Grind
TTITLE7=Feed The Greed
TTITLE8=Big Business
TTITLE9=Should' A Would' A Could' A
TTITLE10=Worry
TTITLE11=Game Over
TTITLE12=American Refugee
TTITLE13=Thumb Hang
EXTD=Chris Tsangarides
EXTT0=
EXTT1=
EXTT2=
EXTT3=
EXTT4=
EXTT5=
EXTT6=
EXTT7=
EXTT8=
EXTT9=
EXTT10=
EXTT11=
EXTT12=
EXTT13=
PLAYORDER=
